<svg xmlns="http://www.w3.org/2000/svg" viewBox="0 0 24 24" fill="none" stroke="#4CAF50" stroke-width="2" stroke-linecap="round" stroke-linejoin="round">
  <path d="M6 12H4C2.9 12 2 12.9 2 14V18C2 19.1 2.9 20 4 20H6C7.1 20 8 19.1 8 18V14C8 12.9 7.1 12 6 12Z"/>
  <path d="M18 12H16C14.9 12 14 12.9 14 14V18C14 19.1 14.9 20 16 20H18C19.1 20 20 19.1 20 18V14C20 12.9 19.1 12 18 12Z"/>
  <circle cx="6" cy="16" r="1" fill="#4CAF50"/>
  <circle cx="18" cy="16" r="1" fill="#4CAF50"/>
  <path d="M12 8V2"/>
  <path d="M9 5L12 8L15 5"/>
</svg>
